<svg version="1.1" xmlns="http://www.w3.org/2000/svg" xmlns:xlink="http://www.w3.org/1999/xlink" width="1305" height="460" viewBox="0 0 1305 460"><defs/><g transform="matrix(1,0,0,1,0,0)"><g><g><g><path fill="none" stroke="#d3d3d3" paint-order="fill stroke markers" d=" M 0 0 L 1200 0" stroke-miterlimit="10" stroke-opacity="0.8" stroke-dasharray="5"/></g><g><path fill="none" stroke="#d3d3d3" paint-order="fill stroke markers" d=" M 0 0 L 0 800" stroke-miterlimit="10" stroke-opacity="0.8" stroke-dasharray="5"/></g></g><g id="_B86311BF-CBD8-4B3A-9274-0CDA9F38ECF1" bpmn2nodeid="_B86311BF-CBD8-4B3A-9274-0CDA9F38ECF1" transform="matrix(1,0,0,1,1199,251)"><g><path fill="none" stroke="none"/></g><g transform="matrix(0.125,0,0,0.125,0,0)"><g transform="matrix(1,0,0,1,0,0)"><path fill="#fce7e7" stroke="none" id="_B86311BF-CBD8-4B3A-9274-0CDA9F38ECF1?shapeType=BACKGROUND" paint-order="stroke fill markers" d=" M 0 0 M 444 224 C 444 263.9 434.2 300.8 414.4 334.5 C 394.7 368.2 368 394.9 334.4 414.5 C 300.79999999999995 434.1 263.9 444 224 444 C 184.10000000000002 444 147.2 434.2 113.5 414.4 C 79.8 394.7 53.1 368 33.5 334.4 C 13.899999999999999 300.79999999999995 4 263.9 4 224 C 4 184.10000000000002 13.8 147.2 33.6 113.5 C 53.400000000000006 79.80000000000001 80.1 53.1 113.6 33.5 C 147.1 13.899999999999999 184.1 4 224 4 C 263.9 4 300.8 13.8 334.5 33.6 C 368.2 53.400000000000006 394.9 80.1 414.5 113.6 C 434.1 147.1 444 184.1 444 224 Z"/></g><g><g transform="matrix(1,0,0,1,0,0)"><g transform="matrix(1,0,0,1,0,0)"><path fill="#a30000" stroke="none" id="_B86311BF-CBD8-4B3A-9274-0CDA9F38ECF1?shapeType=BORDER&amp;renderType=FILL" paint-order="stroke fill markers" d=" M 0 0 M 224 0 C 100.3 0 0 100.3 0 224 C 0 347.7 100.3 448 224 448 C 347.7 448 448 347.7 448 224 C 448 100.30000000000001 347.7 0 224 0 Z M 0 0 M 224 400 C 126.8 400 48 321.2 48 224 C 48 126.80000000000001 126.8 48 224 48 C 321.2 48 400 126.8 400 224 C 400 321.2 321.2 400 224 400 Z"/></g></g></g></g><g transform="matrix(1,0,0,1,28,61)"/></g><g id="_81357475-5530-45AD-B5F5-91E742126E75" bpmn2nodeid="_81357475-5530-45AD-B5F5-91E742126E75" transform="matrix(1,0,0,1,360,147)"><g><path fill="none" stroke="none"/></g><g transform="matrix(1,0,0,1,0,0)"><path fill="#ffffff" stroke="none" id="_81357475-5530-45AD-B5F5-91E742126E75?shapeType=BACKGROUND" paint-order="stroke fill markers" d=" M 5 0 L 777 0 L 777 0 A 5 5 0 0 1 782 5 L 782 258 L 782 258 A 5 5 0 0 1 777 263 L 5 263 L 5 263 A 5 5 0 0 1 0 258 L 0 5 L 0 5.000000000000001 A 5 5 0 0 1 4.999999999999999 0 Z"/></g><g transform="matrix(1,0,0,1,0,0)"><path fill="none" stroke="rgb(57,63,68)" id="_81357475-5530-45AD-B5F5-91E742126E75?shapeType=BORDER&amp;renderType=STROKE" paint-order="fill stroke markers" d=" M 5 0 L 777 0 L 777 0 A 5 5 0 0 1 782 5 L 782 258 L 782 258 A 5 5 0 0 1 777 263 L 5 263 L 5 263 A 5 5 0 0 1 0 258 L 0 5 L 0 5.000000000000001 A 5 5 0 0 1 4.999999999999999 0 Z" stroke-miterlimit="10" stroke-width="1.5" stroke-dasharray=""/></g><g transform="matrix(1,0,0,1,94,30)"><g transform="matrix(0.05,0,0,0.05,285,209)"><g transform="matrix(1,0,0,1,0,0)"><path fill="#000000" stroke="#000000" id="_81357475-5530-45AD-B5F5-91E742126E75undefined" paint-order="fill stroke markers" d=" M 0 0 M 92 44 L 92 468 C 92 474.6 86.6 480 80 480 L 48 480 C 41.4 480 36 474.6 36 468 L 36 44 C 36 37.4 41.4 32 48 32 L 80 32 C 86.6 32 92 37.4 92 44 Z M 0 0 M 252 44 L 252 468 C 252 474.6 246.6 480 240 480 L 208 480 C 201.4 480 196 474.6 196 468 L 196 44 C 196 37.4 201.4 32 208 32 L 240 32 C 246.6 32 252 37.4 252 44 Z M 0 0 M 412 44 L 412 468 C 412 474.6 406.6 480 400 480 L 368 480 C 361.4 480 356 474.6 356 468 L 356 44 C 356 37.4 361.4 32 368 32 L 400 32 C 406.6 32 412 37.4 412 44 Z" stroke-miterlimit="10" stroke-dasharray=""/></g><g transform="matrix(1,0,0,1,0,0)"><path fill="none" stroke="none"/></g></g></g><g transform="matrix(1,0,0,1,350.78515625,0)"><text fill="#000000" stroke="none" font-family="Open Sans" font-size="12pt" font-style="normal" font-weight="normal" text-decoration="normal" x="40.21484375" y="12" text-anchor="middle" dominant-baseline="alphabetic">UsersMulti</text></g><g id="_4646062C-61F7-4ADB-8BA5-079DB341D510" bpmn2nodeid="_4646062C-61F7-4ADB-8BA5-079DB341D510" transform="matrix(1,0,0,1,16,101)"><g><path fill="none" stroke="none"/></g><g transform="matrix(0.125,0,0,0.125,0,0)"><g transform="matrix(1,0,0,1,0,0)"><path fill="#e8fae6" stroke="none" id="_4646062C-61F7-4ADB-8BA5-079DB341D510?shapeType=BACKGROUND" paint-order="stroke fill markers" d=" M 0 0 M 444 224 C 444 263.9 434.2 300.8 414.4 334.5 C 394.7 368.2 368 394.9 334.4 414.5 C 300.79999999999995 434.1 263.9 444 224 444 C 184.10000000000002 444 147.2 434.2 113.5 414.4 C 79.8 394.7 53.1 368 33.5 334.4 C 13.899999999999999 300.79999999999995 4 263.9 4 224 C 4 184.10000000000002 13.8 147.2 33.6 113.5 C 53.400000000000006 79.80000000000001 80.1 53.1 113.6 33.5 C 147.1 13.899999999999999 184.1 4 224 4 C 263.9 4 300.8 13.8 334.5 33.6 C 368.2 53.400000000000006 394.9 80.1 414.5 113.6 C 434.1 147.1 444 184.1 444 224 Z"/></g><g><g transform="matrix(1,0,0,1,0,0)"><g transform="matrix(1,0,0,1,0,0)"><path fill="#4aa241" stroke="none" id="_4646062C-61F7-4ADB-8BA5-079DB341D510?shapeType=BORDER&amp;renderType=FILL" paint-order="stroke fill markers" d=" M 0 0 M 224 0 C 100.3 0 0 100.3 0 224 C 0 347.7 100.3 448 224 448 C 347.7 448 448 347.7 448 224 C 448 100.30000000000001 347.7 0 224 0 Z M 0 0 M 224 432 C 109.1 432 16 338.9 16 224 C 16 109.10000000000002 109.1 16 224 16 C 338.9 16 432 109.1 432 224 C 432 338.9 338.9 432 224 432 Z"/></g></g></g></g><g transform="matrix(1,0,0,1,28,61)"/></g><g id="_1FE59265-DEA8-4B17-A9EF-5B3A92793B29" bpmn2nodeid="_1FE59265-DEA8-4B17-A9EF-5B3A92793B29" transform="matrix(1,0,0,1,701,101.5)"><g><path fill="none" stroke="none"/></g><g transform="matrix(0.125,0,0,0.125,0,0)"><g transform="matrix(1,0,0,1,0,0)"><path fill="#fce7e7" stroke="none" id="_1FE59265-DEA8-4B17-A9EF-5B3A92793B29?shapeType=BACKGROUND" paint-order="stroke fill markers" d=" M 0 0 M 444 224 C 444 263.9 434.2 300.8 414.4 334.5 C 394.7 368.2 368 394.9 334.4 414.5 C 300.79999999999995 434.1 263.9 444 224 444 C 184.10000000000002 444 147.2 434.2 113.5 414.4 C 79.8 394.7 53.1 368 33.5 334.4 C 13.899999999999999 300.79999999999995 4 263.9 4 224 C 4 184.10000000000002 13.8 147.2 33.6 113.5 C 53.400000000000006 79.80000000000001 80.1 53.1 113.6 33.5 C 147.1 13.899999999999999 184.1 4 224 4 C 263.9 4 300.8 13.8 334.5 33.6 C 368.2 53.400000000000006 394.9 80.1 414.5 113.6 C 434.1 147.1 444 184.1 444 224 Z"/></g><g><g transform="matrix(1,0,0,1,0,0)"><g transform="matrix(1,0,0,1,0,0)"><path fill="#a30000" stroke="none" id="_1FE59265-DEA8-4B17-A9EF-5B3A92793B29?shapeType=BORDER&amp;renderType=FILL" paint-order="stroke fill markers" d=" M 0 0 M 224 0 C 100.3 0 0 100.3 0 224 C 0 347.7 100.3 448 224 448 C 347.7 448 448 347.7 448 224 C 448 100.30000000000001 347.7 0 224 0 Z M 0 0 M 224 400 C 126.8 400 48 321.2 48 224 C 48 126.80000000000001 126.8 48 224 48 C 321.2 48 400 126.8 400 224 C 400 321.2 321.2 400 224 400 Z"/></g></g></g></g><g transform="matrix(1,0,0,1,28,61)"/></g><g id="_8AE31A5D-BCC5-452B-B77C-A44EF71CD59E" bpmn2nodeid="_8AE31A5D-BCC5-452B-B77C-A44EF71CD59E" transform="matrix(1,0,0,1,176,22)"><g><path fill="none" stroke="none"/></g><g transform="matrix(1,0,0,1,0,0)"><path fill="#ffffff" stroke="none" id="_8AE31A5D-BCC5-452B-B77C-A44EF71CD59E?shapeType=BACKGROUND" paint-order="stroke fill markers" d=" M 5 0 L 427 0 L 427 0 A 5 5 0 0 1 432 5 L 432 208 L 432 208 A 5 5 0 0 1 427 213 L 5 213 L 5 213 A 5 5 0 0 1 0 208 L 0 5 L 0 5.000000000000001 A 5 5 0 0 1 4.999999999999999 0 Z"/></g><g transform="matrix(1,0,0,1,0,0)"><path fill="none" stroke="rgb(0,136,206)" id="_8AE31A5D-BCC5-452B-B77C-A44EF71CD59E?shapeType=BORDER&amp;renderType=STROKE" paint-order="fill stroke markers" d=" M 5 0 L 427 0 L 427 0 A 5 5 0 0 1 432 5 L 432 208 L 432 208 A 5 5 0 0 1 427 213 L 5 213 L 5 213 A 5 5 0 0 1 0 208 L 0 5 L 0 5.000000000000001 A 5 5 0 0 1 4.999999999999999 0 Z" stroke-miterlimit="10" stroke-width="1.5" stroke-dasharray=""/></g><g transform="matrix(1,0,0,1,-81,-20)"><g transform="matrix(0.05,0,0,0.05,285,209)"><g transform="matrix(1,0,0,1,0,0)"><path fill="#000000" stroke="#000000" id="_8AE31A5D-BCC5-452B-B77C-A44EF71CD59Eundefined" paint-order="fill stroke markers" d=" M 0 0 M 92 44 L 92 468 C 92 474.6 86.6 480 80 480 L 48 480 C 41.4 480 36 474.6 36 468 L 36 44 C 36 37.4 41.4 32 48 32 L 80 32 C 86.6 32 92 37.4 92 44 Z M 0 0 M 252 44 L 252 468 C 252 474.6 246.6 480 240 480 L 208 480 C 201.4 480 196 474.6 196 468 L 196 44 C 196 37.4 201.4 32 208 32 L 240 32 C 246.6 32 252 37.4 252 44 Z M 0 0 M 412 44 L 412 468 C 412 474.6 406.6 480 400 480 L 368 480 C 361.4 480 356 474.6 356 468 L 356 44 C 356 37.4 361.4 32 368 32 L 400 32 C 406.6 32 412 37.4 412 44 Z" stroke-miterlimit="10" stroke-dasharray=""/></g><g transform="matrix(1,0,0,1,0,0)"><path fill="none" stroke="none"/></g></g></g><g transform="matrix(1,0,0,1,137.93359375,0)"><text fill="#000000" stroke="none" font-family="Open Sans" font-size="12pt" font-style="normal" font-weight="normal" text-decoration="normal" x="78.06640625" y="12" text-anchor="middle" dominant-baseline="alphabetic">Sub-process creation</text></g><g id="_CFE040EB-0A6D-46C0-8A7B-0A3EC520B4CD" bpmn2nodeid="_CFE040EB-0A6D-46C0-8A7B-0A3EC520B4CD" transform="matrix(1,0,0,1,339.5,79)"><g><path fill="none" stroke="none"/></g><g transform="matrix(0.125,0,0,0.125,0,0)"><g transform="matrix(1,0,0,1,0,0)"><path fill="#fce7e7" stroke="none" id="_CFE040EB-0A6D-46C0-8A7B-0A3EC520B4CD?shapeType=BACKGROUND" paint-order="stroke fill markers" d=" M 0 0 M 444 224 C 444 263.9 434.2 300.8 414.4 334.5 C 394.7 368.2 368 394.9 334.4 414.5 C 300.79999999999995 434.1 263.9 444 224 444 C 184.10000000000002 444 147.2 434.2 113.5 414.4 C 79.8 394.7 53.1 368 33.5 334.4 C 13.899999999999999 300.79999999999995 4 263.9 4 224 C 4 184.10000000000002 13.8 147.2 33.6 113.5 C 53.400000000000006 79.80000000000001 80.1 53.1 113.6 33.5 C 147.1 13.899999999999999 184.1 4 224 4 C 263.9 4 300.8 13.8 334.5 33.6 C 368.2 53.400000000000006 394.9 80.1 414.5 113.6 C 434.1 147.1 444 184.1 444 224 Z"/></g><g><g transform="matrix(1,0,0,1,0,0)"><g transform="matrix(1,0,0,1,0,0)"><path fill="#a30000" stroke="none" id="_CFE040EB-0A6D-46C0-8A7B-0A3EC520B4CD?shapeType=BORDER&amp;renderType=FILL" paint-order="stroke fill markers" d=" M 0 0 M 224 0 C 100.3 0 0 100.3 0 224 C 0 347.7 100.3 448 224 448 C 347.7 448 448 347.7 448 224 C 448 100.30000000000001 347.7 0 224 0 Z M 0 0 M 224 400 C 126.8 400 48 321.2 48 224 C 48 126.80000000000001 126.8 48 224 48 C 321.2 48 400 126.8 400 224 C 400 321.2 321.2 400 224 400 Z"/></g></g></g></g><g transform="matrix(1,0,0,1,28,61)"/></g><g id="_86559822-83F2-4ED1-B787-FB206ABADD58" bpmn2nodeid="_86559822-83F2-4ED1-B787-FB206ABADD58" transform="matrix(1,0,0,1,17,80)"><g><path fill="none" stroke="none"/></g><g transform="matrix(0.125,0,0,0.125,0,0)"><g transform="matrix(1,0,0,1,0,0)"><path fill="#e8fae6" stroke="none" id="_86559822-83F2-4ED1-B787-FB206ABADD58?shapeType=BACKGROUND" paint-order="stroke fill markers" d=" M 0 0 M 444 224 C 444 263.9 434.2 300.8 414.4 334.5 C 394.7 368.2 368 394.9 334.4 414.5 C 300.79999999999995 434.1 263.9 444 224 444 C 184.10000000000002 444 147.2 434.2 113.5 414.4 C 79.8 394.7 53.1 368 33.5 334.4 C 13.899999999999999 300.79999999999995 4 263.9 4 224 C 4 184.10000000000002 13.8 147.2 33.6 113.5 C 53.400000000000006 79.80000000000001 80.1 53.1 113.6 33.5 C 147.1 13.899999999999999 184.1 4 224 4 C 263.9 4 300.8 13.8 334.5 33.6 C 368.2 53.400000000000006 394.9 80.1 414.5 113.6 C 434.1 147.1 444 184.1 444 224 Z"/></g><g><g transform="matrix(1,0,0,1,0,0)"><g transform="matrix(1,0,0,1,0,0)"><path fill="rgb(74,162,65)" stroke="none" id="_86559822-83F2-4ED1-B787-FB206ABADD58?shapeType=BORDER&amp;renderType=FILL" paint-order="stroke fill markers" d=" M 0 0 M 224 0 C 100.3 0 0 100.3 0 224 C 0 347.7 100.3 448 224 448 C 347.7 448 448 347.7 448 224 C 448 100.30000000000001 347.7 0 224 0 Z M 0 0 M 224 432 C 109.1 432 16 338.9 16 224 C 16 109.10000000000002 109.1 16 224 16 C 338.9 16 432 109.1 432 224 C 432 338.9 338.9 432 224 432 Z"/></g></g></g></g><g transform="matrix(1,0,0,1,28,61)"/></g><g id="_3A147569-EF7B-4494-BDB4-1AD4802A46B1" bpmn2nodeid="_3A147569-EF7B-4494-BDB4-1AD4802A46B1" transform="matrix(1,0,0,1,121.5,56.5)"><g><path fill="none" stroke="none"/></g><g transform="matrix(1,0,0,1,0,0)"><path fill="#ffffff" stroke="none" id="_3A147569-EF7B-4494-BDB4-1AD4802A46B1?shapeType=BACKGROUND" paint-order="stroke fill markers" d=" M 2 0 L 151 0 L 151 0 A 2 2 0 0 1 153 2 L 153 99 L 153 99 A 2 2 0 0 1 151 101 L 2 101 L 2 101 A 2 2 0 0 1 0 99 L 0 2 L 0 2.0000000000000004 A 2 2 0 0 1 1.9999999999999996 0 Z"/></g><g transform="matrix(1,0,0,1,0,0)"><path fill="none" stroke="#393f44" id="_3A147569-EF7B-4494-BDB4-1AD4802A46B1?shapeType=BORDER&amp;renderType=STROKE" paint-order="fill stroke markers" d=" M 2 0 L 151 0 L 151 0 A 2 2 0 0 1 153 2 L 153 99 L 153 99 A 2 2 0 0 1 151 101 L 2 101 L 2 101 A 2 2 0 0 1 0 99 L 0 2 L 0 2.0000000000000004 A 2 2 0 0 1 1.9999999999999996 0 Z" stroke-miterlimit="10" stroke-width="1.5" stroke-dasharray=""/></g><g transform="matrix(1,0,0,1,1,10)"><g transform="matrix(1,0,0,1,0,0)"><g transform="matrix(1,0,0,1,63,66)"><path fill="none" stroke="#393f44" id="_3A147569-EF7B-4494-BDB4-1AD4802A46B1undefined" paint-order="fill stroke markers" d=" M 0 0 L 25 0 L 25 25 L 0 25 L 0 0 Z Z" stroke-miterlimit="10" stroke-width="1.5" stroke-dasharray=""/></g><g transform="matrix(0.04,0,0,0.04,68.64,69.6)"><path fill="#000000" stroke="#000000" id="_3A147569-EF7B-4494-BDB4-1AD4802A46B1undefined" paint-order="fill stroke markers" d=" M 0 0 M 352 184 L 352 232 C 352 238.7 349.7 244.3 345 249 C 340.3 253.7 334.7 256 328 256 L 224 256 L 224 360 C 224 366.7 221.7 372.3 217 377 C 212.3 381.7 206.7 384 200 384 L 152 384 C 145.3 384 139.7 381.7 135 377 C 130.3 372.3 128 366.7 128 360 L 128 256 L 24 256 C 17.3 256 11.7 253.7 7 249 C 2.3000000000000007 244.3 0 238.7 0 232 L 0 184 C 0 177.3 2.3 171.7 7 167 C 11.7 162.3 17.3 160 24 160 L 128 160 L 128 56 C 128 49.3 130.3 43.7 135 39 C 139.7 34.3 145.3 32 152 32 L 200 32 C 206.7 32 212.3 34.3 217 39 C 221.7 43.7 224 49.3 224 56 L 224 160 L 328 160 C 334.7 160 340.3 162.3 345 167 C 349.7 171.7 352 177.3 352 184 Z" stroke-miterlimit="10" stroke-dasharray=""/></g></g></g><g transform="matrix(1,0,0,1,12.82,10)"><g transform="matrix(1,0,0,1,0,0)"><g transform="matrix(1,0,0,1,63,66)"><path fill="none" stroke="none"/></g><g transform="matrix(0.04,0,0,0.04,68.64,69.6)"><path fill="none" stroke="none"/></g><g transform="matrix(0.04,0,0,0.04,40.32,71.04)"><path fill="none" stroke="none"/></g><g transform="matrix(0.04,0,0,0.04,39.36,72)"><path fill="none" stroke="none"/></g></g></g><g transform="matrix(1,0,0,1,30.953125,43)"><text fill="#000000" stroke="none" font-family="Open Sans" font-size="12pt" font-style="normal" font-weight="normal" text-decoration="normal" x="45.546875" y="12" text-anchor="middle" dominant-baseline="alphabetic">Sub-process</text></g></g></g></g><g id="_F7704627-D230-4359-8460-319C8363FB3E" bpmn2nodeid="_F7704627-D230-4359-8460-319C8363FB3E" transform="matrix(1,0,0,1,160,225)"><g><path fill="none" stroke="none"/></g><g transform="matrix(1,0,0,1,0,0)"><path fill="#ffffff" stroke="none" id="_F7704627-D230-4359-8460-319C8363FB3E?shapeType=BACKGROUND" paint-order="stroke fill markers" d=" M 2 0 L 152 0 L 152 0 A 2 2 0 0 1 154 2 L 154 100 L 154 100 A 2 2 0 0 1 152 102 L 2 102 L 2 102 A 2 2 0 0 1 0 100 L 0 2 L 0 2.0000000000000004 A 2 2 0 0 1 1.9999999999999996 0 Z"/></g><g transform="matrix(1,0,0,1,0,0)"><path fill="none" stroke="rgb(0,0,0)" id="_F7704627-D230-4359-8460-319C8363FB3E?shapeType=BORDER&amp;renderType=STROKE" paint-order="fill stroke markers" d=" M 2 0 L 152 0 L 152 0 A 2 2 0 0 1 154 2 L 154 100 L 154 100 A 2 2 0 0 1 152 102 L 2 102 L 2 102 A 2 2 0 0 1 0 100 L 0 2 L 0 2.0000000000000004 A 2 2 0 0 1 1.9999999999999996 0 Z" stroke-miterlimit="10" stroke-width="1.5" stroke-dasharray=""/></g><g><g transform="matrix(0.06,0,0,0.06,9.4,9.4)"><g transform="matrix(1,0,0,1,0,0)"><path fill="#393f44" stroke="none" id="_F7704627-D230-4359-8460-319C8363FB3Eundefined" paint-order="stroke fill markers" d=" M 0 0 M 197.3 130.2 C 194.4 127.29999999999998 189.60000000000002 127.29999999999998 186.70000000000002 130.2 L 130.20000000000002 186.7 C 127.30000000000001 189.6 127.30000000000001 194.39999999999998 130.20000000000002 197.29999999999998 L 186.70000000000002 253.79999999999998 C 188.10000000000002 255.29999999999998 190.10000000000002 255.99999999999997 192.00000000000003 255.99999999999997 C 193.90000000000003 255.99999999999997 195.90000000000003 255.29999999999998 197.30000000000004 253.69999999999996 C 200.20000000000005 250.79999999999995 200.20000000000005 245.99999999999997 197.30000000000004 243.09999999999997 L 146.2 192 L 197.29999999999998 140.8 C 200.2 137.9 200.2 133.1 197.3 130.2 Z"/></g><g transform="matrix(1,0,0,1,0,0)"><path fill="#393f44" stroke="none" id="_F7704627-D230-4359-8460-319C8363FB3Eundefined" paint-order="stroke fill markers" d=" M 0 0 M 261.3 130.2 C 258.40000000000003 127.29999999999998 253.60000000000002 127.29999999999998 250.70000000000002 130.2 C 247.8 133.1 247.8 137.89999999999998 250.70000000000002 140.79999999999998 L 301.8 191.89999999999998 L 250.7 243 C 247.79999999999998 245.9 247.79999999999998 250.7 250.7 253.6 C 252.1 255.29999999999998 254.1 256 256 256 C 257.9 256 259.9 255.3 261.3 253.8 L 317.8 197.3 C 320.7 194.4 320.7 189.60000000000002 317.8 186.70000000000002 L 261.3 130.2 Z"/></g><g transform="matrix(1,0,0,1,0,0)"><path fill="#393f44" stroke="none" id="_F7704627-D230-4359-8460-319C8363FB3Eundefined" paint-order="stroke fill markers" d=" M 0 0 M 400 32 C 400 32 152.8 32 128 32 C 62 32 64 96 64 96 L 64 288 L 1 288 C 1 288 -4 416 78 416 L 320 416 C 368 416 384 368 384 336 C 384 314.2 384 224.4 384 160 L 448 160 L 448 96 C 448 96 449 32 400 32 Z M 0 0 M 78 383.9 C 68.5 383.9 61.6 381.09999999999997 55.5 374.9 C 43.4 362.4 37.5 339.59999999999997 34.9 320 L 256.9 320 C 257.09999999999997 322.7 257.29999999999995 325.4 257.59999999999997 328.2 C 259.99999999999994 351.59999999999997 264.7 370.09999999999997 271.9 383.9 L 78 383.9 L 78 383.9 Z M 0 0 M 352 336 C 352 345.9 349.6 360.3 342.9 371 C 337.2 380.1 330.4 384 320 384 C 285 384 288 288 288 288 L 96 288 L 96 96 L 96 95.9 L 96 95.10000000000001 C 96 90.60000000000001 97.6 78.30000000000001 104.7 71.20000000000002 C 106.5 69.40000000000002 111.9 64.00000000000001 128 64.00000000000001 L 356.5 64.00000000000001 C 354.4 72.80000000000001 352.8 81.80000000000001 352.2 89.9 C 352.2 90.5 352.09999999999997 91.10000000000001 352.09999999999997 91.7 C 352.09999999999997 92 352.09999999999997 92.3 352.09999999999997 92.60000000000001 C 352 94.8 352 96 352 96 L 352 160 L 352 336 Z"/></g></g></g><g transform="matrix(1,0,0,1,35,36)"><text fill="#000000" stroke="none" font-family="Open Sans" font-size="12pt" font-style="normal" font-weight="normal" text-decoration="normal" x="43.33203125" y="12" text-anchor="middle" dominant-baseline="alphabetic">Users&amp;Sub </text><text fill="#000000" stroke="none" font-family="Open Sans" font-size="12pt" font-style="normal" font-weight="normal" text-decoration="normal" x="43.33203125" y="27" text-anchor="middle" dominant-baseline="alphabetic"> processes  </text></g></g><g id="_924EC2D1-1377-4989-9323-5CDC5DE3F8F7" bpmn2nodeid="_924EC2D1-1377-4989-9323-5CDC5DE3F8F7" transform="matrix(1,0,0,1,58,249)"><g><path fill="none" stroke="none"/></g><g transform="matrix(0.125,0,0,0.125,0,0)"><g transform="matrix(1,0,0,1,0,0)"><path fill="#e8fae6" stroke="none" id="_924EC2D1-1377-4989-9323-5CDC5DE3F8F7?shapeType=BACKGROUND" paint-order="stroke fill markers" d=" M 0 0 M 444 224 C 444 263.9 434.2 300.8 414.4 334.5 C 394.7 368.2 368 394.9 334.4 414.5 C 300.79999999999995 434.1 263.9 444 224 444 C 184.10000000000002 444 147.2 434.2 113.5 414.4 C 79.8 394.7 53.1 368 33.5 334.4 C 13.899999999999999 300.79999999999995 4 263.9 4 224 C 4 184.10000000000002 13.8 147.2 33.6 113.5 C 53.400000000000006 79.80000000000001 80.1 53.1 113.6 33.5 C 147.1 13.899999999999999 184.1 4 224 4 C 263.9 4 300.8 13.8 334.5 33.6 C 368.2 53.400000000000006 394.9 80.1 414.5 113.6 C 434.1 147.1 444 184.1 444 224 Z"/></g><g><g transform="matrix(1,0,0,1,0,0)"><g transform="matrix(1,0,0,1,0,0)"><path fill="#4aa241" stroke="none" id="_924EC2D1-1377-4989-9323-5CDC5DE3F8F7?shapeType=BORDER&amp;renderType=FILL" paint-order="stroke fill markers" d=" M 0 0 M 224 0 C 100.3 0 0 100.3 0 224 C 0 347.7 100.3 448 224 448 C 347.7 448 448 347.7 448 224 C 448 100.30000000000001 347.7 0 224 0 Z M 0 0 M 224 432 C 109.1 432 16 338.9 16 224 C 16 109.10000000000002 109.1 16 224 16 C 338.9 16 432 109.1 432 224 C 432 338.9 338.9 432 224 432 Z"/></g></g></g></g><g transform="matrix(1,0,0,1,28,61)"/></g><g id="_CE2F09B3-B87B-4474-8515-9CEE32366D9F" bpmn2nodeid="_CE2F09B3-B87B-4474-8515-9CEE32366D9F"><g><path fill="none" stroke="#000000" paint-order="fill stroke markers" d=" M 114 277 L 145.00354316764125 276.32600993113823" stroke-miterlimit="10" stroke-dasharray=""/></g><g transform="matrix(1,0,0,1,114,277)"/><g transform="matrix(0.021733995409215456,0.9997637888239163,-0.9997637888239163,0.021733995409215456,159.89133002295392,271.0011810558804)"><path fill="#000000" stroke="#000000" paint-order="fill stroke markers" d=" M 10 15 L 0 15 L 5 0 Z" stroke-miterlimit="10" stroke-dasharray=""/></g><g transform="matrix(1,0,0,1,114.21733995409215,266.5023621117608)"/></g><g id="_2D0A867C-B6B0-4185-9CC0-DBEEBC106AB1" bpmn2nodeid="_2D0A867C-B6B0-4185-9CC0-DBEEBC106AB1"><g><path fill="none" stroke="#000000" paint-order="fill stroke markers" d=" M 314 277.5650406504065 L 345.0030973945048 278.1951849063924" stroke-miterlimit="10" stroke-dasharray=""/></g><g transform="matrix(1,0,0,1,314,277.5650406504065)"/><g transform="matrix(-0.02032100624050668,0.999793507033014,-0.999793507033014,-0.02032100624050668,360.10160503120255,273.5010324648349)"><path fill="#000000" stroke="#000000" paint-order="fill stroke markers" d=" M 10 15 L 0 15 L 5 0 Z" stroke-miterlimit="10" stroke-dasharray=""/></g><g transform="matrix(1,0,0,1,314.2032100624051,268.0345852548731)"/></g><g id="_7325BDA7-5524-4958-A6AD-965F0E01ADC7" bpmn2nodeid="_7325BDA7-5524-4958-A6AD-965F0E01ADC7"><g><path fill="none" stroke="#000000" paint-order="fill stroke markers" d=" M 1142 278.5 L 1184.000577067344 278.86842611462583" stroke-miterlimit="10" stroke-dasharray=""/></g><g transform="matrix(1,0,0,1,1142,278.5)"/><g transform="matrix(-0.008771592358277742,0.9999615288437351,-0.9999615288437351,-0.008771592358277742,1199.0438579617914,274.00019235578134)"><path fill="#000000" stroke="#000000" paint-order="fill stroke markers" d=" M 10 15 L 0 15 L 5 0 Z" stroke-miterlimit="10" stroke-dasharray=""/></g><g transform="matrix(1,0,0,1,1142.087715923583,268.7503847115627)"/></g><g id="_DAAC07CE-207C-40B9-84E5-794432E53CBB" bpmn2nodeid="_DAAC07CE-207C-40B9-84E5-794432E53CBB"><g><path fill="none" stroke="#000000" paint-order="fill stroke markers" d=" M 609 277 L 642.5031874203505 276.3092126305082" stroke-miterlimit="10" stroke-dasharray=""/></g><g transform="matrix(1,0,0,1,609,277)"/><g transform="matrix(0.020614175367215232,0.9997875053099682,-0.9997875053099682,0.020614175367215232,657.3969291231639,271.00106247345013)"><path fill="#000000" stroke="#000000" paint-order="fill stroke markers" d=" M 10 15 L 0 15 L 5 0 Z" stroke-miterlimit="10" stroke-dasharray=""/></g><g transform="matrix(1,0,0,1,609.2061417536721,266.5021249469003)"/></g><g id="_2FE3BA64-3D6B-449C-A632-1F0919978EBA" bpmn2nodeid="_2FE3BA64-3D6B-449C-A632-1F0919978EBA"><g><path fill="none" stroke="#000000" paint-order="fill stroke markers" d=" M 810.5 276 L 860.5 276" stroke-miterlimit="10" stroke-dasharray=""/></g><g transform="matrix(1,0,0,1,810.5,276)"/><g transform="matrix(6.123233995736766e-17,1,-1,6.123233995736766e-17,875.5,271)"><path fill="#000000" stroke="#000000" paint-order="fill stroke markers" d=" M 10 15 L 0 15 L 5 0 Z" stroke-miterlimit="10" stroke-dasharray=""/></g><g transform="matrix(1,0,0,1,810.5,266)"/></g><g id="_A3C04E00-D9D0-4B58-A26D-61650C179E33" bpmn2nodeid="_A3C04E00-D9D0-4B58-A26D-61650C179E33"><g><path fill="none" stroke="rgb(0,0,0)" paint-order="fill stroke markers" d=" M 432 276 L 521.0001733512848 275.57211455119574" stroke-miterlimit="10" stroke-dasharray=""/></g><g transform="matrix(1,0,0,1,432,276)"/><g transform="matrix(0.004807636746382762,0.9999884432476781,-0.9999884432476781,0.004807636746382762,535.9759618162681,270.50005778376163)"><path fill="rgb(0,0,0)" stroke="rgb(0,0,0)" paint-order="fill stroke markers" d=" M 10 15 L 0 15 L 5 0 Z" stroke-miterlimit="10" stroke-dasharray=""/></g><g transform="matrix(1,0,0,1,432.0480763674638,265.7501155675232)"/></g><g id="_343558E9-4FA7-4018-BDA5-2C54D2AAAAE7" bpmn2nodeid="_343558E9-4FA7-4018-BDA5-2C54D2AAAAE7"><g><path fill="none" stroke="#000000" paint-order="fill stroke markers" d=" M 968 275.5 L 1046.000867077084 276.33871900082886" stroke-miterlimit="10" stroke-dasharray=""/></g><g transform="matrix(1,0,0,1,968,275.5)"/><g transform="matrix(-0.010752066611409327,0.9999421948610748,-0.9999421948610748,-0.010752066611409327,1061.053760333057,271.5002890256946)"><path fill="#000000" stroke="#000000" paint-order="fill stroke markers" d=" M 10 15 L 0 15 L 5 0 Z" stroke-miterlimit="10" stroke-dasharray=""/></g><g transform="matrix(1,0,0,1,968.107520666114,266.00057805138925)"/></g><g transform="matrix(1,0,0,1,1199,251)"/><g transform="matrix(1,0,0,1,160,225)"/><g transform="matrix(1,0,0,1,58,249)"/><g transform="matrix(1,0,0,1,360,147)"/><g transform="matrix(1,0,0,1,376,248)"/><g transform="matrix(1,0,0,1,1061,248.5)"/><g transform="matrix(1,0,0,1,536,169)"/><g transform="matrix(1,0,0,1,875.5,248)"/><g transform="matrix(1,0,0,1,553,249)"/><g transform="matrix(1,0,0,1,657.5,225.5)"/></g></g></svg>